<svg width="40" height="56" viewBox="0 0 40 56" fill="none" xmlns="http://www.w3.org/2000/svg">
<g clip-path="url(#clip0_236_796)">
<path d="M33.6 0H5.6C4.11479 0 2.69041 0.589998 1.6402 1.6402C0.589998 2.69041 0 4.11479 0 5.6L0 50.4C0 51.8852 0.589998 53.3096 1.6402 54.3598C2.69041 55.41 4.11479 56 5.6 56H33.6C35.0852 56 36.5096 55.41 37.5598 54.3598C38.61 53.3096 39.2 51.8852 39.2 50.4V5.6C39.2 4.11479 38.61 2.69041 37.5598 1.6402C36.5096 0.589998 35.0852 0 33.6 0ZM21 49H18.2C17.4574 49 16.7452 48.705 16.2201 48.1799C15.695 47.6548 15.4 46.9426 15.4 46.2C15.4 45.4574 15.695 44.7452 16.2201 44.2201C16.7452 43.695 17.4574 43.4 18.2 43.4H21C21.7426 43.4 22.4548 43.695 22.9799 44.2201C23.505 44.7452 23.8 45.4574 23.8 46.2C23.8 46.9426 23.505 47.6548 22.9799 48.1799C22.4548 48.705 21.7426 49 21 49ZM33.6 36.4H5.6V11.2H33.6V36.4Z" fill="url(#paint0_linear_236_796)"/>
</g>
<defs>
<linearGradient id="paint0_linear_236_796" x1="-1.02805e-06" y1="-3.9178" x2="43.1554" y2="4.07628" gradientUnits="userSpaceOnUse">
<stop stop-color="#2069DC"/>
<stop offset="1" stop-color="#A100D9"/>
</linearGradient>
<clipPath id="clip0_236_796">
<rect width="39.2" height="56" fill="white"/>
</clipPath>
</defs>
</svg>
