<svg width="37" height="36" viewBox="0 0 37 36" fill="none" xmlns="http://www.w3.org/2000/svg">
<g clip-path="url(#clip0_258_380)">
<path d="M2.03001 9.78253e-05C1.5643 0.156651 1.16264 0.461338 0.886365 0.86762C0.610093 1.2739 0.474399 1.75945 0.500008 2.2501V33.7501C0.500008 34.3468 0.737061 34.9191 1.15902 35.3411C1.58097 35.763 2.15327 36.0001 2.75001 36.0001H34.25C34.8467 36.0001 35.419 35.763 35.841 35.3411C36.263 34.9191 36.5 34.3468 36.5 33.7501V2.2501C36.5 1.65336 36.263 1.08106 35.841 0.659108C35.419 0.237151 34.8467 9.78243e-05 34.25 9.78243e-05L2.75001 9.78253e-05C2.61528 -0.0120769 2.47973 -0.0120769 2.34501 9.78243e-05C2.25509 -0.00530704 2.16493 -0.00530704 2.07501 9.78243e-05L2.03001 9.78253e-05ZM7.25001 4.5001C8.51001 4.5001 9.50001 5.4901 9.50001 6.7501C9.50001 8.0101 8.51001 9.0001 7.25001 9.0001C5.99001 9.0001 5.00001 8.0101 5.00001 6.7501C5.00001 5.4901 5.99001 4.5001 7.25001 4.5001ZM16.25 4.5001H29.75C31.01 4.5001 32 5.4901 32 6.7501C32 8.0101 31.01 9.0001 29.75 9.0001H16.25C14.99 9.0001 14 8.0101 14 6.7501C14 5.4901 14.99 4.5001 16.25 4.5001ZM5.00001 13.5001H32V31.5001H5.00001V13.5001Z" fill="#2069DC"/>
</g>
<defs>
<clipPath id="clip0_258_380">
<rect width="36" height="36" fill="white" transform="translate(0.5)"/>
</clipPath>
</defs>
</svg>
