<svg width="41" height="36" viewBox="0 0 41 36" fill="none" xmlns="http://www.w3.org/2000/svg">
<g clip-path="url(#clip0_258_405)">
<path d="M38.2778 31.3333H4.94444V2.44439C4.94444 1.85502 4.71032 1.28979 4.29357 0.873042C3.87682 0.456294 3.31159 0.222168 2.72222 0.222168C2.13285 0.222168 1.56762 0.456294 1.15087 0.873042C0.734126 1.28979 0.5 1.85502 0.5 2.44439L0.5 33.5555C0.5 34.1449 0.734126 34.7101 1.15087 35.1269C1.56762 35.5436 2.13285 35.7777 2.72222 35.7777H38.2778C38.8671 35.7777 39.4324 35.5436 39.8491 35.1269C40.2659 34.7101 40.5 34.1449 40.5 33.5555C40.5 32.9661 40.2659 32.4009 39.8491 31.9842C39.4324 31.5674 38.8671 31.3333 38.2778 31.3333Z" fill="#2069DC"/>
<path d="M9.38888 24.6666C9.7339 24.6668 10.0742 24.5866 10.3828 24.4323C10.6914 24.278 10.9598 24.0539 11.1667 23.7778L16.2955 16.9377L23.3733 24.0155C23.7901 24.4321 24.3552 24.6662 24.9444 24.6662C25.5337 24.6662 26.0988 24.4321 26.5155 24.0155L33.8333 16.6978V18.46C33.8333 19.0493 34.0674 19.6146 34.4842 20.0313C34.9009 20.4481 35.4662 20.6822 36.0555 20.6822C36.6449 20.6822 37.2101 20.4481 37.6269 20.0313C38.0436 19.6146 38.2778 19.0493 38.2778 18.46V11.3333C38.2778 10.7439 38.0436 10.1787 37.6269 9.76196C37.2101 9.34521 36.6449 9.11108 36.0555 9.11108H28.9289C28.3395 9.11108 27.7743 9.34521 27.3575 9.76196C26.9408 10.1787 26.7067 10.7439 26.7067 11.3333C26.7067 11.9227 26.9408 12.4879 27.3575 12.9047C27.7743 13.3214 28.3395 13.5555 28.9289 13.5555H30.6911L24.9444 19.3022L17.6267 11.9844C17.4047 11.7545 17.1345 11.5769 16.8355 11.4643C16.5365 11.3516 16.2162 11.3069 15.8978 11.3333C15.5798 11.3566 15.2705 11.448 14.991 11.6014C14.7115 11.7548 14.4682 11.9665 14.2778 12.2222L7.6111 21.1111C7.36349 21.4412 7.2127 21.8338 7.17564 22.2448C7.13857 22.6559 7.2167 23.0691 7.40126 23.4382C7.58583 23.8073 7.86953 24.1178 8.22059 24.3348C8.57165 24.5517 8.97619 24.6666 9.38888 24.6666Z" fill="#2069DC"/>
</g>
<defs>
<clipPath id="clip0_258_405">
<rect width="40" height="35.5556" fill="white" transform="translate(0.5 0.222168)"/>
</clipPath>
</defs>
</svg>
