<svg width="27" height="34" viewBox="0 0 27 34" fill="none" xmlns="http://www.w3.org/2000/svg">
<g clip-path="url(#clip0_258_368)">
<path d="M13.5 9.89062C20.6793 9.89062 26.5 8.16325 26.5 6.03125C26.5 3.89925 20.6793 2.17188 13.5 2.17188C6.32075 2.17188 0.5 3.89925 0.5 6.03125C0.5 8.16325 6.32075 9.89062 13.5 9.89062ZM13.5 31.8281C21.5649 31.8281 26.5 29.3289 26.5 27.9688V21.4379C26.4155 21.485 26.318 21.5256 26.2319 21.5711C25.8384 21.7828 25.4343 21.9743 25.0213 22.1448C24.7076 22.2764 24.381 22.4015 24.0462 22.5201L23.7391 22.629C20.4241 23.6495 16.971 24.15 13.5016 24.1094C10.033 24.1493 6.57932 23.6499 3.26412 22.629L2.957 22.5201C2.48783 22.3558 2.0259 22.1715 1.5725 21.9676C1.30104 21.8446 1.03384 21.7123 0.771375 21.5711C0.68525 21.5256 0.58775 21.485 0.50325 21.4379V27.9688C0.5 29.3289 5.43513 31.8281 13.5 31.8281ZM25.0213 11.176C24.7076 11.3076 24.381 11.4327 24.0462 11.5514L23.7391 11.6603C20.4239 12.6812 16.9702 13.1806 13.5016 13.1406C10.033 13.1806 6.57931 12.6812 3.26412 11.6603L2.957 11.5514C2.48783 11.387 2.0259 11.2027 1.5725 10.9989C1.30104 10.8758 1.03384 10.7436 0.771375 10.6024C0.682 10.5569 0.5845 10.5162 0.5 10.4691V17C0.5 18.3601 5.43513 20.8594 13.5 20.8594C21.5649 20.8594 26.5 18.3601 26.5 17V10.4691C26.4155 10.5162 26.318 10.5569 26.2319 10.6024C25.8384 10.8141 25.4343 11.0055 25.0213 11.176Z" fill="#2069DC"/>
</g>
<defs>
<clipPath id="clip0_258_368">
<rect width="26" height="32.5" fill="white" transform="translate(0.5 0.75)"/>
</clipPath>
</defs>
</svg>
