<svg width="47" height="47" viewBox="0 0 47 47" fill="none" xmlns="http://www.w3.org/2000/svg">
<path d="M42.4802 24.9159C43.244 24.1522 43.2577 22.8988 42.5096 22.1155C42.3339 21.9299 42.1226 21.7815 41.8885 21.6792C41.6543 21.5768 41.4019 21.5226 41.1464 21.5197C40.8908 21.5167 40.6373 21.5652 40.4008 21.6622C40.1644 21.7591 39.9498 21.9026 39.7699 22.0842L42.4802 24.9159ZM28.999 32.855C28.2353 33.6187 28.2216 34.8721 28.9697 35.6554C29.1454 35.841 29.3566 35.9894 29.5908 36.0917C29.825 36.1941 30.0773 36.2483 30.3329 36.2512C30.5884 36.2542 30.842 36.2057 31.0784 36.1087C31.3149 36.0118 31.5295 35.8682 31.7094 35.6867L28.999 32.855ZM31.7094 35.6867L42.4802 24.9159L39.7699 22.0842L28.999 32.855L31.7094 35.6867Z" fill="#2069DC"/>
<path d="M27.4167 39.0687C27.4167 40.6197 24.5693 41.5518 19.8223 40.9291C18.7804 40.794 21.4673 40.3103 21.7219 39.0687C21.9725 37.829 22.5209 37.2083 24.0934 37.2083C25.6659 37.2083 27.4167 38.0405 27.4167 39.0687Z" fill="#2069DC"/>
<path fill-rule="evenodd" clip-rule="evenodd" d="M23.046 38.4199C22.9283 38.52 22.7901 38.7263 22.6816 39.2629L22.6811 39.2655C22.6098 39.6131 22.4519 39.9037 22.2664 40.142C23.4624 40.1663 24.4289 40.0602 25.1467 39.8683C25.7162 39.716 26.0665 39.5261 26.2562 39.3616C26.4168 39.2224 26.4357 39.1305 26.4374 39.0782C26.4375 39.0749 26.4376 39.0718 26.4376 39.0688M26.4374 39.0782C26.4373 39.0788 26.4372 39.0791 26.4371 39.0791C26.4322 39.0802 26.3829 38.8818 25.8858 38.618C25.3981 38.3592 24.7257 38.1876 24.0934 38.1876C23.4185 38.1876 23.1596 38.3234 23.046 38.4199M21.7779 36.9276C22.3943 36.4039 23.1958 36.2292 24.0934 36.2292C25.0338 36.2292 26.023 36.4738 26.8038 36.8882C27.5123 37.2641 28.3959 37.9802 28.3959 39.0688C28.3959 39.794 28.0506 40.3977 27.5391 40.8412C27.0466 41.2682 26.3883 41.5634 25.6526 41.7601C24.1775 42.1546 22.138 42.2206 19.6949 41.9001C19.6061 41.8885 19.497 41.8704 19.3873 41.8374C19.3134 41.8152 19.0679 41.74 18.8668 41.5167C18.7462 41.3829 18.6361 41.1886 18.6099 40.9424C18.5845 40.704 18.6475 40.5073 18.7128 40.3766C18.8254 40.151 18.9948 40.0199 19.0485 39.9788C19.1844 39.8746 19.3519 39.7883 19.4527 39.7367C19.5097 39.7076 19.5712 39.677 19.6305 39.6475L19.6437 39.6409C19.7088 39.6085 19.7738 39.5761 19.8403 39.5421C20.1152 39.4016 20.3645 39.2591 20.5511 39.1065C20.7377 38.9538 20.7624 38.8713 20.7628 38.8714C20.7628 38.8714 20.7628 38.8717 20.7627 38.8721L21.7219 39.0688L20.7622 38.8748C20.9043 38.1717 21.1657 37.4479 21.7779 36.9276Z" fill="#2069DC"/>
<path d="M14.6875 35.25C15.2069 35.25 15.705 35.0437 16.0723 34.6764C16.4395 34.3092 16.6459 33.8111 16.6459 33.2917C16.6459 32.7723 16.4395 32.2742 16.0723 31.9069C15.705 31.5397 15.2069 31.3333 14.6875 31.3333V35.25ZM31.3334 17.625C31.3334 18.1444 31.5397 18.6425 31.9069 19.0098C32.2742 19.377 32.7723 19.5833 33.2917 19.5833C33.8111 19.5833 34.3092 19.377 34.6764 19.0098C35.0437 18.6425 35.25 18.1444 35.25 17.625H31.3334ZM13.7084 9.79167H25.4584V5.87501H13.7084V9.79167ZM7.83336 25.4583V15.6667H3.9167V25.4583H7.83336ZM14.6875 31.3333H13.7084V35.25H14.6875V31.3333ZM31.3334 15.6667V17.625H35.25V15.6667H31.3334ZM3.9167 25.4583C3.9167 27.2502 3.91278 28.7895 4.07728 30.0173C4.24961 31.3001 4.63932 32.5318 5.63807 33.5286L8.40715 30.7596C8.25832 30.6107 8.07424 30.3444 7.9587 29.4945C7.83728 28.5917 7.83336 27.3599 7.83336 25.4583H3.9167ZM13.7084 31.3333C11.8068 31.3333 10.577 31.3294 9.67224 31.208C8.82232 31.0925 8.55599 30.9084 8.40715 30.7596L5.63807 33.5286C6.63682 34.5274 7.86665 34.9171 9.14936 35.0894C10.3792 35.2539 11.9165 35.25 13.7084 35.25V31.3333ZM25.4584 9.79167C27.3599 9.79167 28.5897 9.79559 29.4945 9.91701C30.3444 10.0326 30.6107 10.2166 30.7596 10.3655L33.5287 7.59638C32.5299 6.59763 31.3001 6.20792 30.0174 6.03559C28.7875 5.87109 27.2502 5.87501 25.4584 5.87501V9.79167ZM35.25 15.6667C35.25 13.8748 35.2539 12.3355 35.0894 11.1077C34.9171 9.82497 34.5274 8.59317 33.5287 7.59638L30.7596 10.3655C30.9084 10.5143 31.0925 10.7806 31.208 11.6306C31.3294 12.5333 31.3334 13.7651 31.3334 15.6667H35.25ZM13.7084 5.87501C11.9165 5.87501 10.3772 5.87109 9.14936 6.03559C7.86665 6.20792 6.63486 6.59763 5.63807 7.59638L8.40715 10.3655C8.55599 10.2166 8.82232 10.0326 9.67224 9.91701C10.575 9.79559 11.8068 9.79167 13.7084 9.79167V5.87501ZM7.83336 15.6667C7.83336 13.7651 7.83728 12.5353 7.9587 11.6306C8.07424 10.7806 8.25832 10.5143 8.40715 10.3655L5.63807 7.59638C4.63932 8.59513 4.24961 9.82497 4.07728 11.1077C3.91278 12.3375 3.9167 13.8748 3.9167 15.6667H7.83336Z" fill="#2069DC"/>
<path fill-rule="evenodd" clip-rule="evenodd" d="M28.8528 13.2163C28.8807 13.2302 28.9086 13.2441 28.9365 13.258L28.9387 13.2591L34.1674 15.8735C35.1348 16.3572 35.5269 17.5335 35.0432 18.5009C34.5595 19.4682 33.3832 19.8603 32.4158 19.3766L27.1893 16.7634C27.1891 16.7633 27.1895 16.7635 27.1893 16.7634C26.5222 16.4308 26.1593 16.2524 25.884 16.15C25.8286 16.1295 25.787 16.116 25.757 16.1073C25.7336 16.1212 25.7026 16.1409 25.6628 16.1681C25.4323 16.3263 25.1371 16.578 24.5844 17.0568L18.7763 22.0874L20.8971 24.0062C21.6992 24.7318 21.7611 25.9702 21.0355 26.7722C20.3099 27.5743 19.0715 27.6362 18.2695 26.9106L14.2824 23.3034C14.2824 23.3034 14.2824 23.3034 14.2824 23.3034C13.5653 22.6548 13.1669 22.2997 12.8542 22.0838C12.8011 22.0472 12.7593 22.0208 12.7273 22.0021C12.695 22.021 12.6527 22.0476 12.5991 22.0847C12.2863 22.3009 11.8881 22.6557 11.1728 23.3027L7.18952 26.91C6.38784 27.636 5.14941 27.5746 4.42341 26.7729C3.69741 25.9713 3.75875 24.7328 4.56043 24.0068L8.54368 20.3996C8.56926 20.3764 8.59571 20.3525 8.62123 20.3294C9.23132 19.7774 9.82193 19.243 10.3721 18.8627C10.9952 18.4321 11.7607 18.0565 12.7229 18.0559C13.6871 18.0542 14.4545 18.4292 15.0794 18.8607C15.3253 19.0304 15.5791 19.2309 15.8391 19.4499L22.0199 14.0965C22.02 14.0964 22.0199 14.0965 22.0199 14.0965C22.0394 14.0796 22.0591 14.0625 22.0786 14.0456C22.5461 13.6405 23.0106 13.238 23.4467 12.9387C23.9448 12.5969 24.5393 12.2919 25.2888 12.2025M12.7229 18.0559C12.7237 18.0559 12.7245 18.0559 12.7252 18.0559V20.0142L12.7206 18.0559C12.7214 18.0559 12.7222 18.0559 12.7229 18.0559ZM25.6991 16.093C25.6953 16.0927 25.6932 16.0923 25.6932 16.0922ZM28.8528 13.2163C28.2919 12.9365 27.7417 12.6622 27.249 12.4789ZM27.249 12.4789C26.6871 12.27 26.0363 12.1134 25.2888 12.2025Z" fill="#2069DC"/>
</svg>
