<svg width="46" height="24" viewBox="0 0 46 24" fill="none" xmlns="http://www.w3.org/2000/svg">
<path d="M12.75 6.87505C9.3333 6.87505 7.625 9.16964 7.625 12C7.625 14.8306 9.91949 17.125 12.75 17.125C14.6241 17.125 16.1128 15.8401 17.533 13.9749C18.7676 15.933 20.0438 17.9925 21.4368 19.9862C19.2309 22.2852 16.4924 23.9583 12.75 23.9583C6.14555 23.9583 0.791702 18.6045 0.791702 12C0.791702 5.39559 5.9167 0.041748 12.75 0.041748C24.7083 0.041748 26.4167 17.125 33.25 17.125C36.6667 17.125 38.375 14.8304 38.375 12C38.375 9.16954 36.0805 6.87505 33.25 6.87505C31.3759 6.87505 29.8874 8.15997 28.467 10.0251C27.2324 8.06707 25.9562 6.00757 24.5632 4.01389C26.7691 1.71487 29.5076 0.041748 33.25 0.041748C39.8544 0.041748 45.2083 5.39559 45.2083 12C45.2083 18.6045 40.0833 23.9583 33.25 23.9583C21.2917 23.9583 19.5833 6.87505 12.75 6.87505Z" fill="#2069DC"/>
</svg>
