<svg width="41" height="40" viewBox="0 0 41 40" fill="none" xmlns="http://www.w3.org/2000/svg">
<path fill-rule="evenodd" clip-rule="evenodd" d="M28.3613 2.14282C33.8818 2.14282 38.3572 6.62088 38.3572 12.1387V27.8612C38.3572 33.3818 33.8791 37.8571 28.3613 37.8571H12.6388C7.1182 37.8571 2.64288 33.3791 2.64288 27.8612V12.1387C2.64288 6.61814 7.12094 2.14282 12.6388 2.14282L28.3613 2.14282ZM20.5 10.7143C15.3717 10.7143 11.2143 14.8716 11.2143 20C11.2143 25.1283 15.3717 29.2857 20.5 29.2857C25.6284 29.2857 29.7857 25.1283 29.7857 20C29.7857 14.8716 25.6284 10.7143 20.5 10.7143ZM20.5 13.5714C24.0504 13.5714 26.9286 16.4496 26.9286 20C26.9286 23.5504 24.0504 26.4285 20.5 26.4285C16.9496 26.4285 14.0715 23.5504 14.0715 20C14.0715 16.4496 16.9496 13.5714 20.5 13.5714ZM30.8572 7.14282C29.4765 7.14282 28.3572 8.26211 28.3572 9.64282C28.3572 11.0235 29.4765 12.1428 30.8572 12.1428C32.2379 12.1428 33.3572 11.0235 33.3572 9.64282C33.3572 8.26211 32.2379 7.14282 30.8572 7.14282Z" fill="#2069DC"/>
</svg>
