<svg width="39" height="38" viewBox="0 0 39 38" fill="none" xmlns="http://www.w3.org/2000/svg">
<path d="M21.0833 12.6667C22.3431 12.6667 23.5513 13.1671 24.4421 14.0579C25.3329 14.9487 25.8333 16.1569 25.8333 17.4167C25.8333 17.8366 26.0001 18.2393 26.2971 18.5363C26.594 18.8332 26.9967 19 27.4167 19C27.8366 19 28.2393 18.8332 28.5363 18.5363C28.8332 18.2393 29 17.8366 29 17.4167C29 15.317 28.1659 13.3034 26.6813 11.8187C25.1966 10.3341 23.183 9.5 21.0833 9.5C20.6634 9.5 20.2607 9.66682 19.9637 9.96375C19.6668 10.2607 19.5 10.6634 19.5 11.0833C19.5 11.5033 19.6668 11.906 19.9637 12.2029C20.2607 12.4999 20.6634 12.6667 21.0833 12.6667Z" fill="#2069DC"/>
<path d="M21.0833 6.33329C24.0228 6.33329 26.8419 7.501 28.9204 9.57953C30.999 11.6581 32.1667 14.4771 32.1667 17.4166C32.1667 17.8366 32.3335 18.2393 32.6304 18.5362C32.9273 18.8331 33.3301 19 33.75 19C34.1699 19 34.5727 18.8331 34.8696 18.5362C35.1665 18.2393 35.3333 17.8366 35.3333 17.4166C35.3333 13.6373 33.832 10.0127 31.1596 7.34035C28.4872 4.66796 24.8627 3.16663 21.0833 3.16663C20.6634 3.16663 20.2607 3.33344 19.9637 3.63037C19.6668 3.92731 19.5 4.33003 19.5 4.74996C19.5 5.16989 19.6668 5.57261 19.9637 5.86954C20.2607 6.16648 20.6634 6.33329 21.0833 6.33329Z" fill="#2069DC"/>
<path d="M35.6826 25.3771C35.5956 25.1229 35.4452 24.8951 35.2458 24.715C35.0463 24.535 34.8044 24.4086 34.5426 24.3479L25.0426 22.1787C24.7848 22.1203 24.5164 22.1273 24.2619 22.1992C24.0075 22.2711 23.7751 22.4056 23.586 22.5904C23.3643 22.7962 23.3485 22.8121 22.3193 24.7754C18.9044 23.2018 16.168 20.4543 14.6085 17.0329C16.6193 16.0196 16.6351 16.0196 16.841 15.7821C17.0258 15.593 17.1602 15.3606 17.2322 15.1061C17.3041 14.8517 17.3111 14.5833 17.2526 14.3254L15.0835 4.93624C15.0227 4.67451 14.8964 4.43253 14.7164 4.2331C14.5363 4.03366 14.3085 3.88333 14.0543 3.79624C13.6845 3.66417 13.3027 3.56871 12.9143 3.51124C12.5141 3.41845 12.1057 3.36541 11.6951 3.35291C9.76348 3.35291 7.91093 4.12025 6.54504 5.48614C5.17915 6.85203 4.4118 8.70458 4.4118 10.6362C4.42018 17.1005 6.99182 23.2977 11.5628 27.8686C16.1337 32.4395 22.3308 35.0112 28.7951 35.0196C29.7516 35.0196 30.6987 34.8312 31.5824 34.4652C32.466 34.0991 33.2689 33.5627 33.9452 32.8863C34.6216 32.21 35.158 31.4071 35.5241 30.5234C35.8901 29.6398 36.0785 28.6927 36.0785 27.7362C36.079 27.3332 36.0472 26.9308 35.9835 26.5329C35.9169 26.1396 35.8163 25.7529 35.6826 25.3771Z" fill="#2069DC"/>
</svg>
