<svg width="44" height="44" viewBox="0 0 44 44" fill="none" xmlns="http://www.w3.org/2000/svg">
<path fill-rule="evenodd" clip-rule="evenodd" d="M25.6601 25.6601C28.9768 22.3435 28.9768 16.9661 25.6601 13.6494C22.3435 10.3327 16.9661 10.3327 13.6494 13.6494C10.3327 16.9661 10.3327 22.3435 13.6494 25.6601C16.9661 28.9768 22.3435 28.9768 25.6601 25.6601ZM27.4617 31.4653C21.9658 35.1065 14.4881 34.5059 9.64583 29.6637C4.11806 24.1359 4.11806 15.1736 9.64583 9.64583C15.1736 4.11806 24.1359 4.11806 29.6637 9.64583C34.5059 14.4881 35.1065 21.9658 31.4653 27.4617L37.6708 33.6673C38.7764 34.7728 38.7764 36.5653 37.6708 37.6708C36.5653 38.7764 34.7728 38.7764 33.6673 37.6708L27.4617 31.4653Z" fill="#2069DC"/>
</svg>
