<svg width="40" height="40" viewBox="0 0 40 40" fill="none" xmlns="http://www.w3.org/2000/svg">
<path d="M33.2578 9.23823C29.8079 5.80892 25.1603 3.85458 20.2964 3.7879C15.4324 3.72122 10.733 5.54741 7.19037 8.88086C3.64774 12.2143 1.53925 16.7941 1.31014 21.653C1.08103 26.512 2.74924 31.2698 5.9625 34.9218L5.97656 34.9374C6.00234 34.9648 6.02656 34.9929 6.05469 35.0195C6.1125 35.0851 6.17812 35.1593 6.25547 35.2367C6.55879 35.5591 6.92539 35.8154 7.33233 35.9896C7.73928 36.1638 8.17779 36.2521 8.62044 36.249C9.06308 36.2459 9.50033 36.1515 9.90481 35.9717C10.3093 35.7918 10.6723 35.5304 10.9711 35.2039C12.1208 33.9543 13.5173 32.9569 15.0722 32.2746C16.6271 31.5923 18.3067 31.24 20.0047 31.24C21.7027 31.24 23.3823 31.5923 24.9372 32.2746C26.4921 32.9569 27.8885 33.9543 29.0383 35.2039C29.3393 35.5322 29.7052 35.7944 30.1129 35.9739C30.5205 36.1534 30.961 36.2464 31.4064 36.2468C31.8518 36.2473 32.2925 36.1552 32.7005 35.9765C33.1085 35.7977 33.4749 35.5363 33.7766 35.2085L34.0273 34.9351L34.0414 34.9195C37.2075 31.3444 38.8896 26.6956 38.7444 21.9224C38.5992 17.1491 36.6376 12.6112 33.2602 9.2351L33.2578 9.23823ZM18.75 9.99995C18.75 9.66843 18.8817 9.35048 19.1161 9.11606C19.3505 8.88164 19.6685 8.74995 20 8.74995C20.3315 8.74995 20.6495 8.88164 20.8839 9.11606C21.1183 9.35048 21.25 9.66843 21.25 9.99995V12.4999C21.25 12.8315 21.1183 13.1494 20.8839 13.3838C20.6495 13.6182 20.3315 13.7499 20 13.7499C19.6685 13.7499 19.3505 13.6182 19.1161 13.3838C18.8817 13.1494 18.75 12.8315 18.75 12.4999V9.99995ZM10 23.7499H7.5C7.16848 23.7499 6.85054 23.6183 6.61611 23.3838C6.38169 23.1494 6.25 22.8315 6.25 22.4999C6.25 22.1684 6.38169 21.8505 6.61611 21.6161C6.85054 21.3816 7.16848 21.2499 7.5 21.2499H10C10.3315 21.2499 10.6495 21.3816 10.8839 21.6161C11.1183 21.8505 11.25 22.1684 11.25 22.4999C11.25 22.8315 11.1183 23.1494 10.8839 23.3838C10.6495 23.6183 10.3315 23.7499 10 23.7499ZM13.8125 16.3124C13.5781 16.5467 13.2603 16.6783 12.9289 16.6783C12.5975 16.6783 12.2797 16.5467 12.0453 16.3124L10.2773 14.5453C10.0429 14.3108 9.91118 13.9928 9.91118 13.6613C9.91118 13.3297 10.0429 13.0117 10.2773 12.7773C10.5118 12.5428 10.8298 12.4111 11.1613 12.4111C11.4929 12.4111 11.8109 12.5428 12.0453 12.7773L13.8125 14.5453C14.0467 14.7797 14.1783 15.0975 14.1783 15.4289C14.1783 15.7602 14.0467 16.078 13.8125 16.3124ZM25.4766 18.1171L21.7656 24.0156C21.6138 24.226 21.4292 24.4106 21.2187 24.5624C20.7108 24.9168 20.0836 25.0565 19.4732 24.9513C18.8629 24.8461 18.3187 24.5044 17.9587 24.0005C17.5987 23.4965 17.452 22.8708 17.5504 22.2594C17.6488 21.6479 17.9844 21.0999 18.4844 20.7343L24.3828 17.0234C24.5169 16.9299 24.6764 16.8798 24.8398 16.8798C25.0033 16.8798 25.1628 16.9299 25.2969 17.0234C25.4653 17.145 25.5787 17.3282 25.6124 17.5332C25.646 17.7381 25.5972 17.9481 25.4766 18.1171ZM27.9547 16.3124C27.7184 16.537 27.4037 16.6603 27.0777 16.6561C26.7518 16.6519 26.4403 16.5206 26.2098 16.2901C25.9793 16.0596 25.848 15.7482 25.8438 15.4222C25.8397 15.0963 25.963 14.7816 26.1875 14.5453L27.9547 12.7773C28.1891 12.5428 28.5071 12.4111 28.8387 12.4111C29.1702 12.4111 29.4882 12.5428 29.7227 12.7773C29.9571 13.0117 30.0888 13.3297 30.0888 13.6613C30.0888 13.9928 29.9571 14.3108 29.7227 14.5453L27.9547 16.3124ZM32.5 23.7499H30C29.6685 23.7499 29.3505 23.6183 29.1161 23.3838C28.8817 23.1494 28.75 22.8315 28.75 22.4999C28.75 22.1684 28.8817 21.8505 29.1161 21.6161C29.3505 21.3816 29.6685 21.2499 30 21.2499H32.5C32.8315 21.2499 33.1495 21.3816 33.3839 21.6161C33.6183 21.8505 33.75 22.1684 33.75 22.4999C33.75 22.8315 33.6183 23.1494 33.3839 23.3838C33.1495 23.6183 32.8315 23.7499 32.5 23.7499Z" fill="#2069DC"/>
</svg>
