<svg width="46" height="47" viewBox="0 0 46 47" fill="none" xmlns="http://www.w3.org/2000/svg">
<g clip-path="url(#clip0_236_826)">
<path fill-rule="evenodd" clip-rule="evenodd" d="M44.1974 0.605266C45.3195 1.52846 45.4712 3.17494 44.536 4.28277L31.3114 19.9494C30.8089 20.5448 30.0645 20.889 29.2795 20.889C28.4945 20.889 27.7501 20.5448 27.2476 19.9494L16.0549 6.68986L4.86212 19.9494C3.92697 21.0573 2.25917 21.2069 1.13699 20.2838C0.0148126 19.3606 -0.136805 17.7141 0.798346 16.6063L14.023 0.939584C14.5255 0.34427 15.2699 6.55542e-05 16.0549 6.55542e-05C16.8398 6.55542e-05 17.5842 0.34427 18.0868 0.939584L29.2795 14.1992L40.4722 0.939584C41.4074 -0.16825 43.0752 -0.31793 44.1974 0.605266ZM16.0549 18.2778C17.5156 18.2778 18.6998 19.4469 18.6998 20.889V44.389C18.6998 45.831 17.5156 47.0001 16.0549 47.0001C14.5941 47.0001 13.4099 45.831 13.4099 44.389V20.889C13.4099 19.4469 14.5941 18.2778 16.0549 18.2778ZM42.5041 18.2778C43.9649 18.2778 45.1491 19.4469 45.1491 20.889V44.389C45.1491 45.831 43.9649 47.0001 42.5041 47.0001C41.0434 47.0001 39.8592 45.831 39.8592 44.389V20.889C39.8592 19.4469 41.0434 18.2778 42.5041 18.2778ZM2.83023 28.7223C4.29099 28.7223 5.47516 29.8913 5.47516 31.3334V44.389C5.47516 45.831 4.29099 47.0001 2.83023 47.0001C1.36948 47.0001 0.185308 45.831 0.185308 44.389V31.3334C0.185308 29.8913 1.36948 28.7223 2.83023 28.7223ZM29.2795 28.7223C30.7402 28.7223 31.9244 29.8913 31.9244 31.3334V44.389C31.9244 45.831 30.7402 47.0001 29.2795 47.0001C27.8187 47.0001 26.6346 45.831 26.6346 44.389V31.3334C26.6346 29.8913 27.8187 28.7223 29.2795 28.7223Z" fill="url(#paint0_linear_236_826)"/>
</g>
<defs>
<linearGradient id="paint0_linear_236_826" x1="0.185241" y1="-3.28816" x2="48.3009" y2="8.89294" gradientUnits="userSpaceOnUse">
<stop stop-color="#2069DC"/>
<stop offset="1" stop-color="#A100D9"/>
</linearGradient>
<clipPath id="clip0_236_826">
<rect width="44.9637" height="47" fill="white" transform="translate(0.185242)"/>
</clipPath>
</defs>
</svg>
