<svg width="52" height="52" viewBox="0 0 52 52" fill="none" xmlns="http://www.w3.org/2000/svg">
<g clip-path="url(#clip0_236_812)">
<path d="M52 23.4V5.2C52 3.82087 51.4521 2.49823 50.477 1.52304C49.5018 0.547856 48.1791 0 46.8 0L5.2 0C3.82087 0 2.49823 0.547856 1.52304 1.52304C0.547856 2.49823 0 3.82087 0 5.2L0 23.4H52ZM0 28.6V33.8C0 35.1791 0.547856 36.5018 1.52304 37.477C2.49823 38.4521 3.82087 39 5.2 39H23.4V46.8H15.6C14.9104 46.8 14.2491 47.0739 13.7615 47.5615C13.2739 48.0491 13 48.7104 13 49.4C13 50.0896 13.2739 50.7509 13.7615 51.2385C14.2491 51.7261 14.9104 52 15.6 52H36.4C37.0896 52 37.7509 51.7261 38.2385 51.2385C38.7261 50.7509 39 50.0896 39 49.4C39 48.7104 38.7261 48.0491 38.2385 47.5615C37.7509 47.0739 37.0896 46.8 36.4 46.8H28.6V39H46.8C48.1791 39 49.5018 38.4521 50.477 37.477C51.4521 36.5018 52 35.1791 52 33.8V28.6H0Z" fill="url(#paint0_linear_236_812)"/>
</g>
<defs>
<linearGradient id="paint0_linear_236_812" x1="-1.36375e-06" y1="-3.63796" x2="55.3362" y2="11.0055" gradientUnits="userSpaceOnUse">
<stop stop-color="#2069DC"/>
<stop offset="1" stop-color="#A100D9"/>
</linearGradient>
<clipPath id="clip0_236_812">
<rect width="52" height="52" fill="white"/>
</clipPath>
</defs>
</svg>
