<svg width="20" height="21" viewBox="0 0 20 21" fill="none" xmlns="http://www.w3.org/2000/svg">
<path d="M15 4.00906C13.6739 2.68297 11.8754 1.93799 10 1.93799C8.12464 1.93799 6.32608 2.68297 5 4.00906C3.67392 5.33514 2.92893 7.13369 2.92893 9.00906C2.92893 10.8844 3.67392 12.683 5 14.0091L9.39167 18.4091C9.46914 18.4872 9.5613 18.5492 9.66285 18.5915C9.7644 18.6338 9.87332 18.6556 9.98333 18.6556C10.0933 18.6556 10.2023 18.6338 10.3038 18.5915C10.4054 18.5492 10.4975 18.4872 10.575 18.4091L15 13.9674C16.3205 12.6468 17.0624 10.8558 17.0624 8.98822C17.0624 7.12068 16.3205 5.32962 15 4.00906V4.00906ZM13.8083 12.7757L10 16.6007L6.19167 12.7757C5.43929 12.0227 4.92706 11.0634 4.71975 10.0193C4.51243 8.97517 4.61932 7.89301 5.02692 6.90962C5.43452 5.92623 6.12451 5.08576 7.00969 4.49445C7.89487 3.90314 8.93549 3.58754 10 3.58754C11.0645 3.58754 12.1051 3.90314 12.9903 4.49445C13.8755 5.08576 14.5655 5.92623 14.9731 6.90962C15.3807 7.89301 15.4876 8.97517 15.2803 10.0193C15.0729 11.0634 14.5607 12.0227 13.8083 12.7757V12.7757ZM7.5 6.45072C6.82726 7.12553 6.4495 8.03953 6.4495 8.99239C6.4495 9.94525 6.82726 10.8592 7.5 11.5341C7.9998 12.0347 8.63632 12.3766 9.32971 12.5169C10.0231 12.6572 10.7425 12.5895 11.3976 12.3225C12.0527 12.0555 12.6143 11.601 13.0121 11.0159C13.4098 10.4309 13.6259 9.74145 13.6333 9.03406C13.6371 8.56173 13.5461 8.09344 13.3658 7.65688C13.1854 7.22032 12.9194 6.82435 12.5833 6.49239C12.2531 6.15454 11.8592 5.88534 11.4245 5.70028C10.9898 5.51522 10.5228 5.41795 10.0503 5.41408C9.57788 5.41021 9.10933 5.4998 8.67164 5.67771C8.23395 5.85562 7.83577 6.11833 7.5 6.45072V6.45072ZM11.4083 10.3507C11.0925 10.6713 10.6752 10.8723 10.2276 10.9193C9.78004 10.9662 9.33005 10.8563 8.95459 10.6082C8.57912 10.3601 8.3015 9.98926 8.16917 9.55913C8.03685 9.12899 8.05804 8.66625 8.22913 8.25002C8.40022 7.83378 8.71058 7.4899 9.10715 7.27717C9.50372 7.06444 9.96188 6.99606 10.4033 7.08374C10.8447 7.17141 11.2419 7.40969 11.5271 7.75783C11.8123 8.10598 11.9676 8.54236 11.9667 8.99239C11.9545 9.50678 11.7387 9.99533 11.3667 10.3507H11.4083Z" fill="#BBBBBB"/>
</svg>
