<svg width="25" height="25" viewBox="0 0 25 25" fill="none" xmlns="http://www.w3.org/2000/svg">
<path d="M12.3333 19.5C12.5311 19.5 12.7245 19.4414 12.8889 19.3315C13.0534 19.2216 13.1815 19.0654 13.2572 18.8827C13.3329 18.7 13.3527 18.4989 13.3141 18.3049C13.2755 18.1109 13.1803 17.9327 13.0405 17.7929C12.9006 17.653 12.7224 17.5578 12.5284 17.5192C12.3345 17.4806 12.1334 17.5004 11.9507 17.5761C11.7679 17.6518 11.6118 17.78 11.5019 17.9444C11.392 18.1089 11.3333 18.3022 11.3333 18.5C11.3333 18.7652 11.4387 19.0196 11.6262 19.2071C11.8138 19.3946 12.0681 19.5 12.3333 19.5ZM17.3333 19.5C17.5311 19.5 17.7245 19.4414 17.8889 19.3315C18.0534 19.2216 18.1815 19.0654 18.2572 18.8827C18.3329 18.7 18.3527 18.4989 18.3141 18.3049C18.2755 18.1109 18.1803 17.9327 18.0405 17.7929C17.9006 17.653 17.7224 17.5578 17.5284 17.5192C17.3345 17.4806 17.1334 17.5004 16.9507 17.5761C16.7679 17.6518 16.6118 17.78 16.5019 17.9444C16.392 18.1089 16.3333 18.3022 16.3333 18.5C16.3333 18.7652 16.4387 19.0196 16.6262 19.2071C16.8138 19.3946 17.0681 19.5 17.3333 19.5ZM17.3333 15.5C17.5311 15.5 17.7245 15.4414 17.8889 15.3315C18.0534 15.2216 18.1815 15.0654 18.2572 14.8827C18.3329 14.7 18.3527 14.4989 18.3141 14.3049C18.2755 14.1109 18.1803 13.9327 18.0405 13.7929C17.9006 13.653 17.7224 13.5578 17.5284 13.5192C17.3345 13.4806 17.1334 13.5004 16.9507 13.5761C16.7679 13.6518 16.6118 13.78 16.5019 13.9444C16.392 14.1089 16.3333 14.3022 16.3333 14.5C16.3333 14.7652 16.4387 15.0196 16.6262 15.2071C16.8138 15.3946 17.0681 15.5 17.3333 15.5ZM12.3333 15.5C12.5311 15.5 12.7245 15.4414 12.8889 15.3315C13.0534 15.2216 13.1815 15.0654 13.2572 14.8827C13.3329 14.7 13.3527 14.4989 13.3141 14.3049C13.2755 14.1109 13.1803 13.9327 13.0405 13.7929C12.9006 13.653 12.7224 13.5578 12.5284 13.5192C12.3345 13.4806 12.1334 13.5004 11.9507 13.5761C11.7679 13.6518 11.6118 13.78 11.5019 13.9444C11.392 14.1089 11.3333 14.3022 11.3333 14.5C11.3333 14.7652 11.4387 15.0196 11.6262 15.2071C11.8138 15.3946 12.0681 15.5 12.3333 15.5ZM19.3333 3.5H18.3333V2.5C18.3333 2.23478 18.228 1.98043 18.0405 1.79289C17.8529 1.60536 17.5986 1.5 17.3333 1.5C17.0681 1.5 16.8138 1.60536 16.6262 1.79289C16.4387 1.98043 16.3333 2.23478 16.3333 2.5V3.5H8.33334V2.5C8.33334 2.23478 8.22799 1.98043 8.04045 1.79289C7.85291 1.60536 7.59856 1.5 7.33334 1.5C7.06813 1.5 6.81377 1.60536 6.62624 1.79289C6.4387 1.98043 6.33334 2.23478 6.33334 2.5V3.5H5.33334C4.53769 3.5 3.77463 3.81607 3.21202 4.37868C2.64941 4.94129 2.33334 5.70435 2.33334 6.5V20.5C2.33334 21.2956 2.64941 22.0587 3.21202 22.6213C3.77463 23.1839 4.53769 23.5 5.33334 23.5H19.3333C20.129 23.5 20.8921 23.1839 21.4547 22.6213C22.0173 22.0587 22.3333 21.2956 22.3333 20.5V6.5C22.3333 5.70435 22.0173 4.94129 21.4547 4.37868C20.8921 3.81607 20.129 3.5 19.3333 3.5ZM20.3333 20.5C20.3333 20.7652 20.228 21.0196 20.0405 21.2071C19.8529 21.3946 19.5986 21.5 19.3333 21.5H5.33334C5.06813 21.5 4.81377 21.3946 4.62624 21.2071C4.4387 21.0196 4.33334 20.7652 4.33334 20.5V11.5H20.3333V20.5ZM20.3333 9.5H4.33334V6.5C4.33334 6.23478 4.4387 5.98043 4.62624 5.79289C4.81377 5.60536 5.06813 5.5 5.33334 5.5H6.33334V6.5C6.33334 6.76522 6.4387 7.01957 6.62624 7.20711C6.81377 7.39464 7.06813 7.5 7.33334 7.5C7.59856 7.5 7.85291 7.39464 8.04045 7.20711C8.22799 7.01957 8.33334 6.76522 8.33334 6.5V5.5H16.3333V6.5C16.3333 6.76522 16.4387 7.01957 16.6262 7.20711C16.8138 7.39464 17.0681 7.5 17.3333 7.5C17.5986 7.5 17.8529 7.39464 18.0405 7.20711C18.228 7.01957 18.3333 6.76522 18.3333 6.5V5.5H19.3333C19.5986 5.5 19.8529 5.60536 20.0405 5.79289C20.228 5.98043 20.3333 6.23478 20.3333 6.5V9.5ZM7.33334 15.5C7.53112 15.5 7.72446 15.4414 7.88891 15.3315C8.05336 15.2216 8.18154 15.0654 8.25722 14.8827C8.33291 14.7 8.35271 14.4989 8.31413 14.3049C8.27554 14.1109 8.1803 13.9327 8.04045 13.7929C7.9006 13.653 7.72241 13.5578 7.52843 13.5192C7.33445 13.4806 7.13339 13.5004 6.95066 13.5761C6.76793 13.6518 6.61176 13.78 6.50187 13.9444C6.39199 14.1089 6.33334 14.3022 6.33334 14.5C6.33334 14.7652 6.4387 15.0196 6.62624 15.2071C6.81377 15.3946 7.06813 15.5 7.33334 15.5ZM7.33334 19.5C7.53112 19.5 7.72446 19.4414 7.88891 19.3315C8.05336 19.2216 8.18154 19.0654 8.25722 18.8827C8.33291 18.7 8.35271 18.4989 8.31413 18.3049C8.27554 18.1109 8.1803 17.9327 8.04045 17.7929C7.9006 17.653 7.72241 17.5578 7.52843 17.5192C7.33445 17.4806 7.13339 17.5004 6.95066 17.5761C6.76793 17.6518 6.61176 17.78 6.50187 17.9444C6.39199 18.1089 6.33334 18.3022 6.33334 18.5C6.33334 18.7652 6.4387 19.0196 6.62624 19.2071C6.81377 19.3946 7.06813 19.5 7.33334 19.5Z" fill="white"/>
</svg>
