<svg width="20" height="21" viewBox="0 0 20 21" fill="none" xmlns="http://www.w3.org/2000/svg">
<path d="M15.8333 3.60938H4.16666C3.50362 3.60938 2.86774 3.87277 2.3989 4.34161C1.93006 4.81045 1.66666 5.44633 1.66666 6.10937V14.4427C1.66666 15.1057 1.93006 15.7416 2.3989 16.2105C2.86774 16.6793 3.50362 16.9427 4.16666 16.9427H15.8333C16.4964 16.9427 17.1323 16.6793 17.6011 16.2105C18.0699 15.7416 18.3333 15.1057 18.3333 14.4427V6.10937C18.3333 5.44633 18.0699 4.81045 17.6011 4.34161C17.1323 3.87277 16.4964 3.60938 15.8333 3.60938V3.60938ZM15.4917 5.27604L10.5917 10.176C10.5142 10.2541 10.422 10.3161 10.3205 10.3585C10.2189 10.4008 10.11 10.4225 10 10.4225C9.88999 10.4225 9.78107 10.4008 9.67952 10.3585C9.57797 10.3161 9.4858 10.2541 9.40833 10.176L4.50833 5.27604H15.4917ZM16.6667 14.4427C16.6667 14.6637 16.5789 14.8757 16.4226 15.032C16.2663 15.1882 16.0543 15.276 15.8333 15.276H4.16666C3.94565 15.276 3.73369 15.1882 3.57741 15.032C3.42113 14.8757 3.33333 14.6637 3.33333 14.4427V6.45104L8.23333 11.351C8.70208 11.8192 9.3375 12.0822 10 12.0822C10.6625 12.0822 11.2979 11.8192 11.7667 11.351L16.6667 6.45104V14.4427Z" fill="#BBBBBB"/>
</svg>
