<svg width="25" height="25" viewBox="0 0 25 25" fill="none" xmlns="http://www.w3.org/2000/svg">
<path fill-rule="evenodd" clip-rule="evenodd" d="M12.5 0.275879C19.1281 0.275879 24.5 5.64778 24.5 12.2759C24.5 18.2665 20.1125 23.2306 14.375 24.1306V15.7446L17.1711 15.7446L17.7031 12.2759L14.375 12.2759V10.0259C14.375 9.19534 14.7303 8.3827 15.8177 8.19251C15.9731 8.16535 16.1434 8.15088 16.3297 8.15088H17.8438L17.8438 8.15088V5.19775C17.8438 5.19775 17.8438 5.19776 17.8438 5.19775C17.8438 5.19775 16.4703 4.96338 15.1578 4.96338C14.5318 4.96338 13.9554 5.04997 13.4386 5.21939C11.6914 5.79214 10.625 7.31152 10.625 9.63213V12.2759L7.57812 12.2759L7.5781 12.2759V15.7446H10.625V24.1306C4.8875 23.2306 0.5 18.2665 0.5 12.2759C0.5 5.64778 5.8719 0.275879 12.5 0.275879Z" fill="white"/>
</svg>
