<svg width="25" height="25" viewBox="0 0 25 25" fill="none" xmlns="http://www.w3.org/2000/svg">
<path fill-rule="evenodd" clip-rule="evenodd" d="M0.5 12.2759C0.5 5.64848 5.8726 0.275879 12.5 0.275879C19.1274 0.275879 24.5 5.64848 24.5 12.2759C24.5 18.9033 19.1274 24.2759 12.5 24.2759C5.8726 24.2759 0.5 18.9033 0.5 12.2759ZM12.5 7.98254C13.8144 7.98254 14.7011 8.55035 15.2067 9.0248L17.1823 7.0959C15.9689 5.96809 14.39 5.2759 12.5 5.2759C9.76226 5.2759 7.3978 6.84699 6.24671 9.13364L8.51 10.8914C9.0778 9.20364 10.6489 7.98254 12.5 7.98254ZM19.0721 11.0004C19.1733 11.4359 19.2199 11.8559 19.2199 12.4315C19.2199 14.5626 18.4577 16.3592 17.1355 17.5804L14.9266 15.8692C15.8599 15.2159 16.2799 14.2437 16.3577 13.5981H12.4999V11.0004H19.0721ZM8.51776 13.6605C8.36996 13.2249 8.28441 12.7582 8.28441 12.276C8.28441 11.7938 8.36996 11.3271 8.50996 10.8916L6.2466 9.13379C5.77222 10.0827 5.49996 11.1482 5.49996 12.276C5.49996 13.4038 5.77222 14.4694 6.2466 15.4182L8.43099 13.7277L6.25422 15.4181C7.40532 17.7049 9.76196 19.276 12.4998 19.276C14.3898 19.276 15.9764 18.6538 17.1353 17.5804L14.9264 15.8693C14.3353 16.2815 13.542 16.5693 12.4998 16.5693C10.6487 16.5693 9.07769 15.3482 8.51764 13.6606L8.51776 13.6605Z" fill="white"/>
</svg>
