<svg width="25" height="25" viewBox="0 0 25 25" fill="none" xmlns="http://www.w3.org/2000/svg">
<path fill-rule="evenodd" clip-rule="evenodd" d="M12.5 0.275879C5.8726 0.275879 0.5 5.64848 0.5 12.2759C0.5 18.9033 5.8726 24.2759 12.5 24.2759C19.1274 24.2759 24.5 18.9033 24.5 12.2759C24.5 5.64848 19.1274 0.275879 12.5 0.275879ZM9.61424 5.31815C10.3609 5.28419 10.5995 5.27588 12.5006 5.27588H12.4984C14.4001 5.27588 14.6377 5.28419 15.3844 5.31815C16.1297 5.35228 16.6386 5.47024 17.0849 5.64338C17.5457 5.82198 17.935 6.06118 18.3244 6.45056C18.7138 6.8396 18.953 7.23018 19.1324 7.69059C19.3045 8.13563 19.4226 8.64433 19.4576 9.38955C19.4911 10.1362 19.4999 10.3748 19.4999 12.2759C19.4999 14.177 19.4911 14.415 19.4576 15.1616C19.4226 15.9066 19.3045 16.4154 19.1324 16.8606C18.953 17.3208 18.7138 17.7114 18.3244 18.1005C17.9355 18.4899 17.5456 18.7296 17.0853 18.9084C16.6399 19.0815 16.1306 19.1995 15.3855 19.2336C14.6388 19.2676 14.4009 19.2759 12.4997 19.2759C10.5988 19.2759 10.3603 19.2676 9.61364 19.2336C8.86858 19.1995 8.35978 19.0815 7.9144 18.9084C7.45427 18.7296 7.06375 18.4899 6.67481 18.1005C6.28555 17.7114 6.0464 17.3208 5.86747 16.8605C5.69449 16.4154 5.57653 15.9067 5.54224 15.1615C5.50845 14.4148 5.49997 14.177 5.49997 12.2759C5.49997 10.3748 5.50872 10.136 5.54213 9.38939C5.57566 8.64444 5.69378 8.13563 5.8673 7.69042C6.04668 7.23018 6.28588 6.8396 6.67525 6.45056C7.06435 6.06129 7.45487 5.82215 7.91528 5.64338C8.36038 5.47024 8.86902 5.35228 9.61424 5.31815ZM12.2673 6.53724H12.2671L12.2603 6.53723C12.1214 6.53718 11.9925 6.53713 11.8726 6.53729V6.53554C10.568 6.53702 10.3177 6.54577 9.67199 6.57492C8.9895 6.60631 8.61894 6.72006 8.37219 6.8163C8.04549 6.94345 7.81214 7.09515 7.56714 7.34015C7.32214 7.58515 7.17022 7.81844 7.04335 8.14514C6.94754 8.39189 6.83346 8.76229 6.80229 9.44478C6.76871 10.1827 6.76204 10.4032 6.76204 12.2725C6.76204 14.1418 6.76871 14.3635 6.80229 15.1014C6.83335 15.7839 6.94754 16.1543 7.04335 16.4008C7.1705 16.7276 7.32214 16.9603 7.56714 17.2053C7.81214 17.4503 8.04549 17.602 8.37219 17.7289C8.61905 17.8247 8.9895 17.9387 9.67199 17.9702C10.4099 18.0038 10.6314 18.0111 12.5006 18.0111C14.3696 18.0111 14.5913 18.0038 15.3291 17.9702C16.0116 17.9391 16.3824 17.8253 16.6288 17.7291C16.9557 17.6022 17.1882 17.4505 17.4332 17.2055C17.6782 16.9606 17.8302 16.728 17.9571 16.4014C18.0529 16.1549 18.1669 15.7845 18.1981 15.102C18.2317 14.364 18.239 14.1424 18.239 12.2743C18.239 10.4061 18.2317 10.1845 18.1981 9.44653C18.1671 8.76404 18.0529 8.39364 17.9571 8.14717C17.8299 7.82052 17.6782 7.58717 17.4332 7.34218C17.1884 7.09718 16.9555 6.94548 16.6288 6.8186C16.3821 6.72279 16.0116 6.60877 15.3291 6.57754C14.5911 6.54402 14.3696 6.53729 12.5006 6.53729L12.2673 6.53724ZM16.2371 7.69961C15.7734 7.69961 15.3971 8.07542 15.3971 8.53933C15.3971 9.00308 15.7734 9.37932 16.2371 9.37932C16.7009 9.37932 17.0771 9.00308 17.0771 8.53933C17.0771 8.07558 16.7009 7.69934 16.2371 7.69934V7.69961ZM8.90577 12.2759C8.90577 10.2907 10.5153 8.68113 12.5004 8.68108C14.4857 8.68108 16.0948 10.2906 16.0948 12.2759C16.0948 14.2611 14.4858 15.87 12.5006 15.87C10.5153 15.87 8.90577 14.2611 8.90577 12.2759ZM12.5006 9.94254C13.7892 9.94254 14.8339 10.9871 14.8339 12.2759C14.8339 13.5645 13.7892 14.6092 12.5006 14.6092C11.2118 14.6092 10.1672 13.5645 10.1672 12.2759C10.1672 10.9871 11.2118 9.94254 12.5006 9.94254Z" fill="white"/>
</svg>
