<svg width="260" height="82" viewBox="0 0 260 82" fill="none" xmlns="http://www.w3.org/2000/svg">
<rect x="4" y="4" width="124" height="74" rx="10" stroke="white" stroke-width="7"/>
<path d="M44.096 51.44C44.096 55.136 43.172 57.82 41.324 59.492C39.52 61.164 36.704 62 32.876 62H30.698C26.87 62 24.032 61.164 22.184 59.492C20.38 57.82 19.478 55.136 19.478 51.44V39.56C19.478 35.864 20.38 33.18 22.184 31.508C24.032 29.836 26.87 29 30.698 29H32.876C36.704 29 39.52 29.836 41.324 31.508C43.172 33.18 44.096 35.864 44.096 39.56V51.44ZM38.486 38.24C38.486 36.876 38.068 35.82 37.232 35.072C36.396 34.324 35.164 33.95 33.536 33.95H30.038C28.41 33.95 27.178 34.324 26.342 35.072C25.506 35.82 25.088 36.876 25.088 38.24V52.76C25.088 54.124 25.506 55.18 26.342 55.928C27.178 56.676 28.41 57.05 30.038 57.05H33.536C35.164 57.05 36.396 56.676 37.232 55.928C38.068 55.18 38.486 54.124 38.486 52.76V38.24Z" fill="white"/>
<path d="M65.932 62C64.436 62 63.116 61.472 61.972 60.416C60.872 59.36 60.322 57.688 60.322 55.4V20.75H50.62V15.8H65.932V55.07C65.932 55.774 66.108 56.28 66.46 56.588C66.812 56.896 67.406 57.05 68.242 57.05H77.02V62H65.932Z" fill="white"/>
<path d="M112.096 51.44C112.096 55.136 111.172 57.82 109.324 59.492C107.52 61.164 104.704 62 100.876 62H98.698C94.87 62 92.032 61.164 90.184 59.492C88.38 57.82 87.478 55.136 87.478 51.44V39.56C87.478 35.864 88.38 33.18 90.184 31.508C92.032 29.836 94.87 29 98.698 29H100.876C104.704 29 107.52 29.836 109.324 31.508C111.172 33.18 112.096 35.864 112.096 39.56V51.44ZM106.486 38.24C106.486 36.876 106.068 35.82 105.232 35.072C104.396 34.324 103.164 33.95 101.536 33.95H98.038C96.41 33.95 95.178 34.324 94.342 35.072C93.506 35.82 93.088 36.876 93.088 38.24V52.76C93.088 54.124 93.506 55.18 94.342 55.928C95.178 56.676 96.41 57.05 98.038 57.05H101.536C103.164 57.05 104.396 56.676 105.232 55.928C106.068 55.18 106.486 54.124 106.486 52.76V38.24Z" fill="white"/>
<path d="M150.344 18.223L148.886 25H146.375L143.945 11.5H146.24L147.779 22.219L149.561 13.93H151.316L152.936 22.219L154.475 11.5H156.635L154.232 25H151.64L150.344 18.223ZM164.709 25C163.125 25 161.964 24.667 161.226 24.001C160.488 23.317 160.119 22.21 160.119 20.68V15.82C160.119 14.272 160.452 13.165 161.118 12.499C161.784 11.833 162.891 11.5 164.439 11.5H165.708C166.986 11.5 167.949 11.86 168.597 12.58C169.263 13.282 169.596 14.317 169.596 15.685V19.195H162.414V21.22C162.414 21.778 162.585 22.21 162.927 22.516C163.269 22.822 163.773 22.975 164.439 22.975H168.732V25H164.709ZM167.355 15.145C167.355 14.677 167.202 14.29 166.896 13.984C166.59 13.678 166.203 13.525 165.735 13.525H164.169C163.521 13.525 163.062 13.678 162.792 13.984C162.54 14.272 162.414 14.704 162.414 15.28V17.17H167.355V15.145ZM184.393 20.68C184.393 22.192 184.015 23.29 183.259 23.974C182.521 24.658 181.369 25 179.803 25H174.511V6.1H176.806V12.04C177.346 11.68 178.021 11.5 178.831 11.5H179.803C181.387 11.5 182.548 11.842 183.286 12.526C184.024 13.192 184.393 14.29 184.393 15.82V20.68ZM178.561 13.525C177.967 13.525 177.526 13.687 177.238 14.011C176.95 14.317 176.806 14.65 176.806 15.01V22.975H180.073C180.739 22.975 181.243 22.822 181.585 22.516C181.927 22.21 182.098 21.778 182.098 21.22V15.28C182.098 14.722 181.927 14.29 181.585 13.984C181.243 13.678 180.739 13.525 180.073 13.525H178.561ZM153.125 49.379C152.531 49.793 151.811 50 150.965 50H149.858C148.274 50 147.113 49.667 146.375 49.001C145.637 48.317 145.268 47.21 145.268 45.68V40.82C145.268 39.308 145.637 38.21 146.375 37.526C147.131 36.842 148.292 36.5 149.858 36.5H152.99V31.1H155.285V50H153.125V49.379ZM151.235 47.975C151.829 47.975 152.27 47.822 152.558 47.516C152.846 47.192 152.99 46.85 152.99 46.49V38.525H149.588C148.922 38.525 148.418 38.678 148.076 38.984C147.734 39.29 147.563 39.722 147.563 40.28V46.22C147.563 46.778 147.734 47.21 148.076 47.516C148.418 47.822 148.922 47.975 149.588 47.975H151.235ZM164.709 50C163.125 50 161.964 49.667 161.226 49.001C160.488 48.317 160.119 47.21 160.119 45.68V40.82C160.119 39.272 160.452 38.165 161.118 37.499C161.784 36.833 162.891 36.5 164.439 36.5H165.708C166.986 36.5 167.949 36.86 168.597 37.58C169.263 38.282 169.596 39.317 169.596 40.685V44.195H162.414V46.22C162.414 46.778 162.585 47.21 162.927 47.516C163.269 47.822 163.773 47.975 164.439 47.975H168.732V50H164.709ZM167.355 40.145C167.355 39.677 167.202 39.29 166.896 38.984C166.59 38.678 166.203 38.525 165.735 38.525H164.169C163.521 38.525 163.062 38.678 162.792 38.984C162.54 39.272 162.414 39.704 162.414 40.28V42.17H167.355V40.145ZM183.556 46.625C183.556 47.759 183.205 48.605 182.503 49.163C181.819 49.721 180.82 50 179.506 50H175.483V47.975H179.776C180.262 47.975 180.631 47.876 180.883 47.678C181.135 47.462 181.261 47.156 181.261 46.76V45.329C181.261 44.519 180.874 44.114 180.1 44.114H179.101C177.841 44.114 176.896 43.844 176.266 43.304C175.654 42.746 175.348 41.873 175.348 40.685V39.902C175.348 38.696 175.69 37.832 176.374 37.31C177.058 36.77 178.066 36.5 179.398 36.5H183.016V38.525H179.128C178.678 38.525 178.318 38.633 178.048 38.849C177.778 39.047 177.643 39.344 177.643 39.74V40.712C177.643 41.126 177.76 41.432 177.994 41.63C178.246 41.828 178.561 41.927 178.939 41.927H179.857C181.063 41.927 181.981 42.224 182.611 42.818C183.241 43.394 183.556 44.258 183.556 45.41V46.625ZM195.302 31.1V33.53H192.737V31.1H195.302ZM188.903 38.525V36.5H195.167V47.975H199.163V50H192.872V38.525H188.903ZM213.933 50.945C213.933 52.169 213.564 53.078 212.826 53.672C212.106 54.284 210.972 54.59 209.424 54.59H203.808V52.565H209.694C210.342 52.565 210.828 52.439 211.152 52.187C211.476 51.935 211.638 51.611 211.638 51.215V50.351C211.638 49.937 211.476 49.613 211.152 49.379C210.828 49.127 210.342 49.001 209.694 49.001H205.023V45.275C204.429 44.951 203.988 44.483 203.7 43.871C203.412 43.259 203.268 42.467 203.268 41.495V40.82C203.268 39.308 203.637 38.21 204.375 37.526C205.131 36.842 206.292 36.5 207.858 36.5H213.528V41.495C213.528 42.845 213.159 43.907 212.421 44.681C211.683 45.437 210.702 45.815 209.478 45.815H207.318V46.976H209.424C210.972 46.976 212.106 47.282 212.826 47.894C213.564 48.488 213.933 49.397 213.933 50.621V50.945ZM209.478 43.79C210.036 43.79 210.459 43.61 210.747 43.25C211.035 42.89 211.197 42.512 211.233 42.116V38.525H207.588C206.922 38.525 206.418 38.678 206.076 38.984C205.734 39.29 205.563 39.722 205.563 40.28V42.035C205.563 42.593 205.734 43.025 206.076 43.331C206.418 43.637 206.922 43.79 207.588 43.79H209.478ZM220.414 36.5V37.148C220.972 36.716 221.692 36.5 222.574 36.5H223.816C225.274 36.5 226.354 36.842 227.056 37.526C227.776 38.21 228.136 39.308 228.136 40.82V50H225.841V40.28C225.841 39.74 225.679 39.317 225.355 39.011C225.049 38.687 224.626 38.525 224.086 38.525H222.304C221.71 38.525 221.269 38.687 220.981 39.011C220.693 39.317 220.549 39.65 220.549 40.01V50H218.254V36.5H220.414ZM154.394 71.625C154.394 72.759 154.043 73.605 153.341 74.163C152.657 74.721 151.658 75 150.344 75H146.321V72.975H150.614C151.1 72.975 151.469 72.876 151.721 72.678C151.973 72.462 152.099 72.156 152.099 71.76V70.329C152.099 69.519 151.712 69.114 150.938 69.114H149.939C148.679 69.114 147.734 68.844 147.104 68.304C146.492 67.746 146.186 66.873 146.186 65.685V64.902C146.186 63.696 146.528 62.832 147.212 62.31C147.896 61.77 148.904 61.5 150.236 61.5H153.854V63.525H149.966C149.516 63.525 149.156 63.633 148.886 63.849C148.616 64.047 148.481 64.344 148.481 64.74V65.712C148.481 66.126 148.598 66.432 148.832 66.63C149.084 66.828 149.399 66.927 149.777 66.927H150.695C151.901 66.927 152.819 67.224 153.449 67.818C154.079 68.394 154.394 69.258 154.394 70.41V71.625ZM164.709 75C163.125 75 161.964 74.667 161.226 74.001C160.488 73.317 160.119 72.21 160.119 70.68V65.82C160.119 64.272 160.452 63.165 161.118 62.499C161.784 61.833 162.891 61.5 164.439 61.5H165.708C166.986 61.5 167.949 61.86 168.597 62.58C169.263 63.282 169.596 64.317 169.596 65.685V69.195H162.414V71.22C162.414 71.778 162.585 72.21 162.927 72.516C163.269 72.822 163.773 72.975 164.439 72.975H168.732V75H164.709ZM167.355 65.145C167.355 64.677 167.202 64.29 166.896 63.984C166.59 63.678 166.203 63.525 165.735 63.525H164.169C163.521 63.525 163.062 63.678 162.792 63.984C162.54 64.272 162.414 64.704 162.414 65.28V67.17H167.355V65.145ZM176.833 72.975V63.525H174.862V61.5H178.993V62.229C179.587 61.743 180.307 61.5 181.153 61.5H183.934V63.66H180.883C180.307 63.66 179.875 63.849 179.587 64.227C179.299 64.587 179.146 64.956 179.128 65.334V72.975H182.071V75H174.862V72.975H176.833ZM188.471 61.5H190.955L194.114 73.137L197.192 61.5H199.595L195.707 75H192.386L188.471 61.5ZM209.883 56.1V58.53H207.318V56.1H209.883ZM203.484 63.525V61.5H209.748V72.975H213.744V75H207.453V63.525H203.484ZM223.735 75C222.151 75 220.99 74.667 220.252 74.001C219.514 73.317 219.145 72.21 219.145 70.68V65.82C219.145 64.308 219.514 63.21 220.252 62.526C221.008 61.842 222.169 61.5 223.735 61.5H227.218V63.525H223.465C222.799 63.525 222.295 63.678 221.953 63.984C221.611 64.29 221.44 64.722 221.44 65.28V71.22C221.44 71.778 221.611 72.21 221.953 72.516C222.295 72.822 222.799 72.975 223.465 72.975H227.218V75H223.735ZM237.614 75C236.03 75 234.869 74.667 234.131 74.001C233.393 73.317 233.024 72.21 233.024 70.68V65.82C233.024 64.272 233.357 63.165 234.023 62.499C234.689 61.833 235.796 61.5 237.344 61.5H238.613C239.891 61.5 240.854 61.86 241.502 62.58C242.168 63.282 242.501 64.317 242.501 65.685V69.195H235.319V71.22C235.319 71.778 235.49 72.21 235.832 72.516C236.174 72.822 236.678 72.975 237.344 72.975H241.637V75H237.614ZM240.26 65.145C240.26 64.677 240.107 64.29 239.801 63.984C239.495 63.678 239.108 63.525 238.64 63.525H237.074C236.426 63.525 235.967 63.678 235.697 63.984C235.445 64.272 235.319 64.704 235.319 65.28V67.17H240.26V65.145ZM256.461 71.625C256.461 72.759 256.11 73.605 255.408 74.163C254.724 74.721 253.725 75 252.411 75H248.388V72.975H252.681C253.167 72.975 253.536 72.876 253.788 72.678C254.04 72.462 254.166 72.156 254.166 71.76V70.329C254.166 69.519 253.779 69.114 253.005 69.114H252.006C250.746 69.114 249.801 68.844 249.171 68.304C248.559 67.746 248.253 66.873 248.253 65.685V64.902C248.253 63.696 248.595 62.832 249.279 62.31C249.963 61.77 250.971 61.5 252.303 61.5H255.921V63.525H252.033C251.583 63.525 251.223 63.633 250.953 63.849C250.683 64.047 250.548 64.344 250.548 64.74V65.712C250.548 66.126 250.665 66.432 250.899 66.63C251.151 66.828 251.466 66.927 251.844 66.927H252.762C253.968 66.927 254.886 67.224 255.516 67.818C256.146 68.394 256.461 69.258 256.461 70.41V71.625Z" fill="white"/>
</svg>
