<svg width="132" height="82" viewBox="0 0 132 82" fill="none" xmlns="http://www.w3.org/2000/svg">
<rect x="4" y="4" width="124" height="74" rx="10" stroke="white" stroke-width="7"/>
<path d="M44.096 51.44C44.096 55.136 43.172 57.82 41.324 59.492C39.52 61.164 36.704 62 32.876 62H30.698C26.87 62 24.032 61.164 22.184 59.492C20.38 57.82 19.478 55.136 19.478 51.44V39.56C19.478 35.864 20.38 33.18 22.184 31.508C24.032 29.836 26.87 29 30.698 29H32.876C36.704 29 39.52 29.836 41.324 31.508C43.172 33.18 44.096 35.864 44.096 39.56V51.44ZM38.486 38.24C38.486 36.876 38.068 35.82 37.232 35.072C36.396 34.324 35.164 33.95 33.536 33.95H30.038C28.41 33.95 27.178 34.324 26.342 35.072C25.506 35.82 25.088 36.876 25.088 38.24V52.76C25.088 54.124 25.506 55.18 26.342 55.928C27.178 56.676 28.41 57.05 30.038 57.05H33.536C35.164 57.05 36.396 56.676 37.232 55.928C38.068 55.18 38.486 54.124 38.486 52.76V38.24Z" fill="white"/>
<path d="M65.932 62C64.436 62 63.116 61.472 61.972 60.416C60.872 59.36 60.322 57.688 60.322 55.4V20.75H50.62V15.8H65.932V55.07C65.932 55.774 66.108 56.28 66.46 56.588C66.812 56.896 67.406 57.05 68.242 57.05H77.02V62H65.932Z" fill="white"/>
<path d="M112.096 51.44C112.096 55.136 111.172 57.82 109.324 59.492C107.52 61.164 104.704 62 100.876 62H98.698C94.87 62 92.032 61.164 90.184 59.492C88.38 57.82 87.478 55.136 87.478 51.44V39.56C87.478 35.864 88.38 33.18 90.184 31.508C92.032 29.836 94.87 29 98.698 29H100.876C104.704 29 107.52 29.836 109.324 31.508C111.172 33.18 112.096 35.864 112.096 39.56V51.44ZM106.486 38.24C106.486 36.876 106.068 35.82 105.232 35.072C104.396 34.324 103.164 33.95 101.536 33.95H98.038C96.41 33.95 95.178 34.324 94.342 35.072C93.506 35.82 93.088 36.876 93.088 38.24V52.76C93.088 54.124 93.506 55.18 94.342 55.928C95.178 56.676 96.41 57.05 98.038 57.05H101.536C103.164 57.05 104.396 56.676 105.232 55.928C106.068 55.18 106.486 54.124 106.486 52.76V38.24Z" fill="white"/>
</svg>
