<svg width="20" height="21" viewBox="0 0 20 21" fill="none" xmlns="http://www.w3.org/2000/svg">
<path d="M9.16667 1.94238C7.51849 1.94238 5.90732 2.43112 4.53691 3.3468C3.1665 4.26248 2.0984 5.56397 1.46767 7.08669C0.836939 8.60941 0.671911 10.285 0.993455 11.9015C1.315 13.518 2.10867 15.0028 3.27411 16.1683C4.43955 17.3337 5.9244 18.1274 7.54091 18.4489C9.15742 18.7705 10.833 18.6054 12.3557 17.9747C13.8784 17.344 15.1799 16.2759 16.0956 14.9055C17.0113 13.5351 17.5 11.9239 17.5 10.2757C17.5 9.18137 17.2845 8.09773 16.8657 7.08669C16.4469 6.07564 15.833 5.15698 15.0592 4.38316C14.2854 3.60934 13.3667 2.99551 12.3557 2.57672C11.3446 2.15793 10.261 1.94238 9.16667 1.94238V1.94238ZM9.16667 16.9424C7.84812 16.9424 6.55919 16.5514 5.46286 15.8188C4.36654 15.0863 3.51205 14.0451 3.00747 12.8269C2.50288 11.6088 2.37086 10.2683 2.6281 8.97511C2.88533 7.68191 3.52027 6.49402 4.45262 5.56167C5.38497 4.62932 6.57286 3.99438 7.86606 3.73715C9.15927 3.47991 10.4997 3.61194 11.7179 4.11652C12.9361 4.6211 13.9773 5.47559 14.7098 6.57191C15.4423 7.66824 15.8333 8.95717 15.8333 10.2757C15.8333 12.0438 15.131 13.7395 13.8807 14.9898C12.6305 16.24 10.9348 16.9424 9.16667 16.9424V16.9424ZM9.16667 5.27572C8.94565 5.27572 8.73369 5.36351 8.57741 5.51979C8.42113 5.67607 8.33333 5.88804 8.33333 6.10905V9.79238L6.58333 10.8007C6.4228 10.8917 6.29699 11.0334 6.22565 11.2035C6.15431 11.3737 6.14146 11.5627 6.18912 11.741C6.23678 11.9192 6.34226 12.0766 6.48901 12.1885C6.63576 12.3004 6.81548 12.3603 7 12.359C7.14598 12.3601 7.28966 12.3227 7.41666 12.2507L9.58333 11.0007L9.65833 10.9257L9.79167 10.8174C9.82425 10.7761 9.8522 10.7314 9.875 10.684C9.90216 10.6393 9.9245 10.5918 9.94167 10.5424C9.96433 10.4894 9.9784 10.4331 9.98333 10.3757C9.98333 10.3757 10 10.2757 10 10.2757V6.10905C10 5.88804 9.9122 5.67607 9.75592 5.51979C9.59964 5.36351 9.38768 5.27572 9.16667 5.27572Z" fill="#BBBBBB"/>
</svg>
