<svg width="20" height="21" viewBox="0 0 20 21" fill="none" xmlns="http://www.w3.org/2000/svg">
<path d="M16.2 11.1092C16.0167 11.1092 15.825 11.0509 15.6417 11.0092C15.2704 10.9274 14.9056 10.8188 14.55 10.6842C14.1634 10.5435 13.7385 10.5508 13.3569 10.7047C12.9754 10.8585 12.6642 11.148 12.4833 11.5175L12.3 11.8925C11.4883 11.441 10.7425 10.8802 10.0833 10.2259C9.42897 9.5667 8.86819 8.82085 8.41667 8.00918L8.76667 7.77585C9.13614 7.59495 9.42565 7.28379 9.57949 6.90226C9.73334 6.52073 9.74064 6.09578 9.6 5.70918C9.46769 5.35287 9.35911 4.98818 9.275 4.61752C9.23333 4.43418 9.2 4.24252 9.175 4.05085C9.0738 3.46387 8.76635 2.9323 8.30802 2.55188C7.84968 2.17146 7.27058 1.96719 6.675 1.97585H4.175C3.81586 1.97248 3.46021 2.04653 3.13226 2.19296C2.80431 2.33939 2.51176 2.55476 2.27453 2.82442C2.03729 3.09407 1.86095 3.41168 1.75749 3.75561C1.65403 4.09955 1.6259 4.46173 1.675 4.81752C2.11895 8.30867 3.71336 11.5524 6.20638 14.0364C8.6994 16.5203 11.9489 18.1029 15.4417 18.5342H15.7583C16.3728 18.5351 16.9662 18.3096 17.425 17.9009C17.6886 17.6651 17.8992 17.376 18.0429 17.0528C18.1865 16.7296 18.26 16.3795 18.2583 16.0259V13.5259C18.2481 12.947 18.0373 12.3896 17.6619 11.9489C17.2866 11.5082 16.7698 11.2114 16.2 11.1092V11.1092ZM16.6167 16.1092C16.6165 16.2275 16.5912 16.3444 16.5423 16.4522C16.4935 16.56 16.4222 16.6561 16.3333 16.7342C16.2405 16.815 16.1316 16.8754 16.0139 16.9113C15.8961 16.9472 15.7721 16.9578 15.65 16.9425C12.5291 16.5424 9.6302 15.1146 7.4106 12.8844C5.191 10.6543 3.77701 7.74863 3.39167 4.62585C3.3784 4.50378 3.39003 4.38029 3.42584 4.26284C3.46164 4.14539 3.52089 4.03642 3.6 3.94252C3.67809 3.85363 3.77422 3.78238 3.88198 3.73353C3.98975 3.68468 4.10668 3.65933 4.225 3.65918H6.725C6.91879 3.65487 7.10802 3.71825 7.26012 3.83841C7.41222 3.95857 7.51768 4.12799 7.55833 4.31752C7.59167 4.54529 7.63333 4.77029 7.68333 4.99252C7.7796 5.4318 7.90772 5.8635 8.06667 6.28418L6.9 6.82585C6.80025 6.87162 6.71052 6.93664 6.63596 7.01718C6.56141 7.09772 6.5035 7.1922 6.46556 7.29518C6.42762 7.39816 6.41039 7.50763 6.41487 7.61729C6.41935 7.72694 6.44545 7.83464 6.49167 7.93418C7.691 10.5031 9.75604 12.5682 12.325 13.7675C12.5279 13.8509 12.7554 13.8509 12.9583 13.7675C13.0623 13.7303 13.1578 13.6729 13.2393 13.5985C13.3209 13.5241 13.3868 13.4343 13.4333 13.3342L13.95 12.1675C14.3808 12.3216 14.8205 12.4496 15.2667 12.5509C15.4889 12.6009 15.7139 12.6425 15.9417 12.6759C16.1312 12.7165 16.3006 12.822 16.4208 12.9741C16.5409 13.1262 16.6043 13.3154 16.6 13.5092L16.6167 16.1092Z" fill="#BBBBBB"/>
</svg>
