<svg width="25" height="24" viewBox="0 0 25 24" fill="none" xmlns="http://www.w3.org/2000/svg">
<path d="M18.2533 6.62C18.1519 6.37565 17.9577 6.18147 17.7133 6.08C17.5931 6.02876 17.464 6.00158 17.3333 6H7.33334C7.06813 6 6.81377 6.10536 6.62624 6.29289C6.4387 6.48043 6.33334 6.73478 6.33334 7C6.33334 7.26522 6.4387 7.51957 6.62624 7.70711C6.81377 7.89464 7.06813 8 7.33334 8H14.9233L6.62334 16.29C6.52962 16.383 6.45522 16.4936 6.40445 16.6154C6.35368 16.7373 6.32755 16.868 6.32755 17C6.32755 17.132 6.35368 17.2627 6.40445 17.3846C6.45522 17.5064 6.52962 17.617 6.62334 17.71C6.71631 17.8037 6.82691 17.8781 6.94877 17.9289C7.07063 17.9797 7.20133 18.0058 7.33334 18.0058C7.46536 18.0058 7.59606 17.9797 7.71792 17.9289C7.83978 17.8781 7.95038 17.8037 8.04334 17.71L16.3333 9.41V17C16.3333 17.2652 16.4387 17.5196 16.6262 17.7071C16.8138 17.8946 17.0681 18 17.3333 18C17.5986 18 17.8529 17.8946 18.0405 17.7071C18.228 17.5196 18.3333 17.2652 18.3333 17V7C18.3318 6.86932 18.3046 6.74022 18.2533 6.62Z" fill="#767676"/>
</svg>
